Coordinates
version=1
nRows=18
nColumns=22
inDegrees=yes

Units are S.I. units (second, meters, Newtons, ...)
If the header above contains a line with 'inDegrees', this indicates whether rotational values are in degrees (yes) or radians (no).

endheader
time	pelvis_tilt	pelvis_list	pelvis_rotation	pelvis_tx	pelvis_ty	pelvis_tz	hip_flexion_r	hip_adduction_r	hip_rotation_r	knee_angle_r	ankle_angle_r	subtalar_angle_r	hip_flexion_l	hip_adduction_l	hip_rotation_l	knee_angle_l	ankle_angle_l	subtalar_angle_l	lumbar_extension	lumbar_bending	lumbar_rotation
      0.01000000	      0.51452255	     -1.11352937	    -30.73813453	     -1.01372037	      0.90826145	     -0.40264003	     -5.82631725	      0.27956934	     -1.88045138	     -1.62201735	     14.27055765	      1.64603210	      1.31165456	     -3.04337274	    -13.49046603	    -17.36767017	     16.23867974	     -1.71452596	     -5.73663171	     -1.93537627	      4.12882010
      0.02000000	      0.51592481	     -1.10966582	    -30.70994687	     -1.01353682	      0.90826227	     -0.40268143	     -5.83339116	      0.27192626	     -1.87865740	     -1.63054043	     14.26851830	      1.64536206	      1.30731182	     -3.03472129	    -13.49511491	    -17.36798738	     16.23676800	     -1.71682696	     -5.73309440	     -1.92278167	      4.13616071
      0.03000000	      0.55713909	     -1.10336923	    -30.63814739	     -1.01328139	      0.90831877	     -0.40278600	     -5.88248452	      0.24313284	     -1.98083807	     -1.63884516	     14.26919541	      1.62832224	      1.25862294	     -2.99019015	    -13.42047987	    -17.33876821	     16.19144711	     -1.76940234	     -5.77389385	     -1.93224840	      4.09978303
      0.04000000	      0.55784221	     -1.09932697	    -30.60383959	     -1.01304351	      0.90831636	     -0.40282523	     -5.89193557	      0.23510589	     -1.97507008	     -1.64967974	     14.26940869	      1.62827923	      1.25285958	     -2.98192092	    -13.42220850	    -17.34041496	     16.19151688	     -1.77016187	     -5.76527385	     -1.91921768	      4.10822803
      0.05000000	      0.58416761	     -1.08617396	    -30.51578792	     -1.01274938	      0.90833971	     -0.40294984	     -5.93035354	      0.20819810	     -2.06513299	     -1.65293683	     14.29971294	      1.61631975	      1.22507912	     -2.93586887	    -13.29838648	    -17.31552728	     16.18010677	     -1.78630760	     -5.78386161	     -1.92667076	      4.05945719
      0.06000000	      0.58461867	     -1.08178025	    -30.48027469	     -1.01249404	      0.90833468	     -0.40299733	     -5.93978655	      0.19895327	     -2.06107295	     -1.66441514	     14.29937707	      1.61600193	      1.21957811	     -2.92724771	    -13.30093839	    -17.31758575	     16.17943308	     -1.78667370	     -5.77517787	     -1.91204710	      4.06805942
      0.07000000	      0.60652969	     -1.06911795	    -30.38427844	     -1.01218762	      0.90835040	     -0.40312649	     -5.97087902	      0.17639053	     -2.17926516	     -1.67717045	     14.33057288	      1.59915508	      1.20197357	     -2.88702577	    -13.18025734	    -17.30420637	     16.16075774	     -1.79218719	     -5.78785063	     -1.91886492	      4.01348043
      0.08000000	      0.60679970	     -1.06506525	    -30.34952767	     -1.01193031	      0.90834155	     -0.40317237	     -5.98060848	      0.16665081	     -2.17548551	     -1.68857659	     14.33077690	      1.59882995	      1.19607745	     -2.87924545	    -13.18238766	    -17.30650123	     16.16045896	     -1.79231289	     -5.77729674	     -1.90416461	      4.02216796
      0.09000000	      0.61947583	     -1.05067915	    -30.25860107	     -1.01163093	      0.90833971	     -0.40330061	     -6.00072361	      0.14660766	     -2.29549398	     -1.70202684	     14.37014331	      1.58276896	      1.18741221	     -2.84293643	    -13.07054328	    -17.29323359	     16.15291673	     -1.79178023	     -5.77888745	     -1.90602963	      3.98037614
      0.10000000	      0.61948713	     -1.04770091	    -30.22326946	     -1.01138177	      0.90832895	     -0.40333192	     -6.01084544	      0.13905210	     -2.29159627	     -1.71426096	     14.37045108	      1.58249486	      1.18007979	     -2.83758634	    -13.07324993	    -17.29477642	     16.15257300	     -1.79187400	     -5.76508888	     -1.89545881	      3.98898829
      0.11000000	      0.62595656	     -1.03172501	    -30.14082775	     -1.01109212	      0.90831885	     -0.40343194	     -6.01958077	      0.12118666	     -2.40879908	     -1.73648327	     14.41120139	      1.56842869	      1.16867070	     -2.80395509	    -12.97696413	    -17.26775378	     16.14589038	     -1.78749032	     -5.75426359	     -1.90016751	      3.95676721
      0.12000000	      0.62514886	     -1.02812592	    -30.10548830	     -1.01085814	      0.90830593	     -0.40346120	     -6.02897129	      0.11390043	     -2.40580990	     -1.74637049	     14.41205539	      1.56827702	      1.16154697	     -2.79913827	    -12.98078277	    -17.26712583	     16.14566389	     -1.78743131	     -5.74017155	     -1.88910344	      3.96777993
      0.13000000	      0.61586466	     -1.01725659	    -30.06013555	     -1.01058120	      0.90827855	     -0.40347406	     -6.03993369	      0.10839326	     -2.46627770	     -1.73707577	     14.43357862	      1.56353024	      1.14820384	     -2.78612132	    -12.95575898	    -17.23202770	     16.14611030	     -1.78310528	     -5.70467998	     -1.88575440	      4.00219316
      0.14000000	      0.61713599	     -0.99900370	    -30.00689183	     -1.01031411	      0.90826125	     -0.40351326	     -6.04305817	      0.08944427	     -2.53370540	     -1.75321518	     14.45951862	      1.55654573	      1.12853648	     -2.75659959	    -12.90423476	    -17.19115279	     16.14478815	     -1.77291075	     -5.67907784	     -1.89190730	      4.00595029
      0.15000000	      0.61702400	     -0.99451100	    -29.97325885	     -1.01009552	      0.90825025	     -0.40354009	     -6.05192176	      0.08190520	     -2.53060240	     -1.76407380	     14.46057673	      1.55637150	      1.12154053	     -2.75055477	    -12.90673390	    -17.19011644	     16.14430013	     -1.77236042	     -5.66643692	     -1.88145217	      4.01485726
      0.16000000	      0.62212240	     -0.96534145	    -29.91616136	     -1.00981727	      0.90823194	     -0.40358855	     -6.05541468	      0.05102171	     -2.62369751	     -1.77721196	     14.50250646	      1.54824996	      1.09500921	     -2.70231734	    -12.82560891	    -17.12816139	     16.13338086	     -1.75232149	     -5.63792642	     -1.90076048	      4.02222822
      0.17000000	      0.62243632	     -0.96159574	    -29.88517008	     -1.00959734	      0.90821913	     -0.40360121	     -6.06581014	      0.04451881	     -2.62129542	     -1.78655290	     14.50361677	      1.54820227	      1.08639363	     -2.69789015	    -12.82858870	    -17.12837826	     16.13283275	     -1.75183130	     -5.62117888	     -1.89057578	      4.03294939
      0.18000000	      0.61518539	     -0.95015538	    -29.84992694	     -1.00933776	      0.90818961	     -0.40359834	     -6.08010311	      0.03764828	     -2.67061706	     -1.77084479	     14.52347753	      1.54590606	      1.07040470	     -2.68388712	    -12.80877360	    -17.09376327	     16.13308916	     -1.74424617	     -5.58459824	     -1.88785760	      4.07686541
